<svg width="24" height="24" viewBox="0 0 24 24" fill="none" xmlns="http://www.w3.org/2000/svg">
<g id="icon/arrow_left">
<path id="Vector" d="M15.5774 5.93485C15.5773 6.20004 15.4719 6.45435 15.2844 6.64185L10.6984 11.2278C10.5159 11.418 10.414 11.6713 10.414 11.9348C10.414 12.1984 10.5159 12.4517 10.6984 12.6418L15.2844 17.2278C15.4665 17.4164 15.5673 17.6691 15.5651 17.9312C15.5628 18.1934 15.4576 18.4443 15.2722 18.6297C15.0868 18.8151 14.836 18.9202 14.5738 18.9225C14.3116 18.9248 14.059 18.824 13.8704 18.6418L9.28438 14.0558C8.73891 13.4842 8.43457 12.7245 8.43457 11.9343C8.43457 11.1442 8.73891 10.3845 9.28438 9.81285L13.8704 5.22784C14.0102 5.08804 14.1884 4.99283 14.3824 4.95426C14.5763 4.91569 14.7773 4.9355 14.96 5.01117C15.1427 5.08684 15.2989 5.21498 15.4088 5.37939C15.5187 5.5438 15.5773 5.73709 15.5774 5.93485Z" fill="#959595"/>
</g>
</svg>
