<svg width="64" height="64" viewBox="0 0 64 64" fill="none" xmlns="http://www.w3.org/2000/svg">
<g id="Ass/ass-ok">
<path id="Icon shape" fill-rule="evenodd" clip-rule="evenodd" d="M31.9997 5.33398C17.2957 5.33398 5.33307 17.2962 5.33307 32.0007C5.33307 46.7051 17.2957 58.6673 31.9997 58.6673C46.7038 58.6673 58.6664 46.7051 58.6664 32.0007C58.6664 17.2962 46.7038 5.33398 31.9997 5.33398ZM52.5256 19.5563C54.7305 23.1828 56 27.445 56 32.0009C56 36.5568 54.7305 40.8163 52.5256 44.4455C52.1247 45.1052 51.6917 45.7461 51.2321 46.3603C50.7697 46.9772 50.2806 47.57 49.7648 48.1389C48.7332 49.2738 47.592 50.3127 46.3599 51.2313C46.0525 51.4637 45.7372 51.6853 45.4191 51.9016C44.1416 52.7669 42.7786 53.5093 41.3407 54.1128C40.9826 54.2677 40.6191 54.4119 40.253 54.5455C39.5154 54.8125 38.7643 55.0475 37.9973 55.2451C36.0811 55.7392 34.0712 56.0009 32 56.0009C18.7465 56.0009 7.99998 45.2547 7.99998 32.0009C7.99998 18.7471 18.7465 8.0009 32 8.0009C34.0712 8.0009 36.0811 8.26261 37.9973 8.75665C38.7643 8.95427 39.5154 9.18661 40.253 9.459C40.6191 9.59253 40.9826 9.73407 41.3407 9.88628C42.7786 10.4925 44.1416 11.2376 45.4191 12.1001C45.7372 12.3165 46.0525 12.5381 46.3599 12.7705C47.592 13.6918 48.7332 14.7253 49.7648 15.8629C50.2806 16.4317 50.7697 17.0273 51.2321 17.6415C51.6917 18.2584 52.1247 18.8966 52.5256 19.5563ZM22.7099 31.5342L29.0442 37.8689L44.4927 22.4192L46.3805 24.3056L29.0442 41.6442L20.8222 33.4231L22.7099 31.5342Z" fill="white"/>
</g>
</svg>
