<svg width="16" height="17" viewBox="0 0 16 17" fill="none" xmlns="http://www.w3.org/2000/svg">
<path d="M8 5.7487V13.7487M8 5.7487C8.45239 3.99426 10.161 3.09842 13.881 3.08203C13.9404 3.08181 13.9994 3.09316 14.0543 3.11542C14.1093 3.13767 14.1593 3.1704 14.2013 3.21172C14.2434 3.25303 14.2767 3.30211 14.2994 3.35614C14.322 3.41016 14.3336 3.46805 14.3333 3.52648V11.5265C14.3333 11.6443 14.2857 11.7574 14.2008 11.8407C14.116 11.9241 14.0009 11.9709 13.881 11.9709C10.2619 11.9709 8.86377 12.6879 8 13.7487C7.14133 12.6931 5.7381 11.9709 2.11906 11.9709C1.83971 11.9709 1.66667 11.7473 1.66667 11.4729V3.52648C1.66645 3.46805 1.678 3.41016 1.70065 3.35614C1.72331 3.30211 1.75662 3.25303 1.79867 3.21172C1.84073 3.1704 1.89069 3.13767 1.94567 3.11542C2.00066 3.09316 2.05959 3.08181 2.11906 3.08203C5.83904 3.09842 7.54762 3.99426 8 5.7487Z" stroke="white" stroke-width="1.5" stroke-linecap="round" stroke-linejoin="round"/>
</svg>
