<svg width="670" height="668" viewBox="0 0 670 668" fill="none" xmlns="http://www.w3.org/2000/svg">
<path d="M665.768 334C665.768 516.133 517.678 663.781 335 663.781C317.304 663.781 299.933 662.396 282.989 659.727L280.724 663.639C298.39 666.508 316.52 668 335 668C520.015 668 670 518.463 670 334C670 149.537 520.015 0 335 0C149.985 0 0 149.537 0 334C0 493.204 111.721 626.392 261.262 659.883L263.48 656.052C115.183 623.462 4.23158 491.65 4.23158 334C4.23158 151.867 152.322 4.21895 335 4.21895C517.678 4.21895 665.768 151.867 665.768 334Z" fill="#DDE0E4"/>
</svg>
