<svg width="16" height="16" viewBox="0 0 16 16" fill="none" xmlns="http://www.w3.org/2000/svg">
<g id="exit" clip-path="url(#clip0_201_6134)">
<path id="Vector" fill-rule="evenodd" clip-rule="evenodd" d="M3.20046 1.06689C2.91756 1.06689 2.64625 1.17928 2.44621 1.37931C2.24617 1.57935 2.13379 1.85066 2.13379 2.13356V13.8669C2.13379 14.1498 2.24617 14.4211 2.44621 14.6211C2.64625 14.8212 2.91756 14.9336 3.20046 14.9336H11.2005C11.3419 14.9336 11.4776 14.8774 11.5776 14.7774C11.6776 14.6773 11.7338 14.5417 11.7338 14.4002C11.7338 14.2588 11.6776 14.1231 11.5776 14.0231C11.4776 13.9231 11.3419 13.8669 11.2005 13.8669H3.20046V2.13356H11.2005C11.3419 2.13356 11.4776 2.07737 11.5776 1.97735C11.6776 1.87733 11.7338 1.74168 11.7338 1.60023C11.7338 1.45878 11.6776 1.32312 11.5776 1.2231C11.4776 1.12308 11.3419 1.06689 11.2005 1.06689H3.20046ZM13.4447 5.22263C13.3446 5.12248 13.2088 5.06622 13.0671 5.06622C12.9255 5.06622 12.7897 5.12248 12.6895 5.22263C12.5894 5.32277 12.5331 5.4586 12.5331 5.60023C12.5331 5.74186 12.5894 5.87768 12.6895 5.97783L14.1797 7.46689H6.93379C6.79234 7.46689 6.65669 7.52308 6.55667 7.6231C6.45665 7.72312 6.40046 7.85878 6.40046 8.00023C6.40046 8.14168 6.45665 8.27733 6.55667 8.37735C6.65669 8.47737 6.79234 8.53356 6.93379 8.53356H14.1797L12.6895 10.0226C12.5894 10.1228 12.5331 10.2586 12.5331 10.4002C12.5331 10.5419 12.5894 10.6777 12.6895 10.7778C12.7897 10.878 12.9255 10.9342 13.0671 10.9342C13.2088 10.9342 13.3446 10.878 13.4447 10.7778L15.8447 8.37783C15.8944 8.32829 15.9338 8.26943 15.9607 8.20464C15.9876 8.13984 16.0014 8.07038 16.0014 8.00023C16.0014 7.93008 15.9876 7.86061 15.9607 7.79582C15.9338 7.73102 15.8944 7.67217 15.8447 7.62263L13.4447 5.22263Z" fill="#B5B5B7"/>
</g>
<defs>
<clipPath id="clip0_201_6134">
<rect width="16" height="16" fill="white"/>
</clipPath>
</defs>
</svg>
