<svg width="22" height="19" viewBox="0 0 22 19" fill="none" xmlns="http://www.w3.org/2000/svg">
<g id="Group">
<path id="Vector" d="M12.0781 2.80619L12.0784 2.80589C12.5074 2.32236 13.029 1.92972 13.6123 1.65116C14.1956 1.37259 14.8289 1.21376 15.4746 1.18404C16.1203 1.15431 16.7655 1.2543 17.3719 1.4781C17.9784 1.7019 18.5338 2.04496 19.0054 2.48703C19.477 2.9291 19.8553 3.4612 20.1178 4.05191C20.3804 4.64261 20.5218 5.27995 20.5339 5.92625C20.546 6.57256 20.4284 7.21473 20.1881 7.81483C19.9479 8.41494 19.5898 8.9608 19.135 9.42018L10.9997 17.6336L2.86426 9.42005L2.3314 9.94784L2.86426 9.42004C2.00195 8.54947 1.50221 7.38405 1.46598 6.15924C1.42976 4.93443 1.85975 3.74152 2.66909 2.82149L2.66918 2.82139C4.58959 0.637552 7.98992 0.629931 9.92101 2.80594L9.92123 2.80619L10.4389 3.38904L10.9997 4.02034L11.5604 3.38904L12.0781 2.80619Z" stroke="#1D6BF3" stroke-width="1.5"/>
</g>
</svg>
