<svg width="22" height="19" viewBox="0 0 22 19" fill="none" xmlns="http://www.w3.org/2000/svg">
<path d="M11.5176 2.30909C12.0132 1.75061 12.6156 1.29709 13.2894 0.975345C13.9631 0.653596 14.6945 0.470137 15.4404 0.435805C16.1862 0.401473 16.9314 0.516965 17.6318 0.775457C18.3323 1.03395 18.9738 1.4302 19.5186 1.9408C20.0633 2.45141 20.5002 3.066 20.8034 3.74829C21.1067 4.43057 21.2701 5.16671 21.284 5.91322C21.298 6.65972 21.1622 7.40145 20.8847 8.09459C20.6071 8.78773 20.1935 9.41822 19.6682 9.94881L11.4568 18.2391C11.397 18.2995 11.3259 18.3474 11.2474 18.3801C11.169 18.4128 11.0849 18.4297 10.9999 18.4297C10.915 18.4297 10.8308 18.4128 10.7524 18.3801C10.674 18.3474 10.6028 18.2995 10.5431 18.2391L2.33164 9.94881C1.33563 8.94324 0.758399 7.59712 0.716556 6.18239C0.674712 4.76766 1.17138 3.38978 2.10622 2.32709C4.3245 -0.195478 8.25193 -0.20405 10.4822 2.30909L10.9999 2.89195L11.5176 2.30909Z" fill="#1D6BF3"/>
</svg>
